<svg id="Layer_1" viewBox="0 0 24 24" xmlns="http://www.w3.org/2000/svg" data-name="Layer 1"><path d="m14.961 9.73c.023.619.039 1.431.039 2.114 0 1.803-.205 3.156-.342 3.86-.565.127-1.528.296-2.658.296s-2.093-.169-2.658-.296c-.138-.705-.342-2.059-.342-3.86 0-.683.016-1.495.04-2.114.802-.122 1.816-.23 2.96-.23s2.158.108 2.961.23zm8.039 2.27c0 7.71-3.29 11-11 11s-11-3.29-11-11 3.29-11 11-11 11 3.29 11 11zm-5.72-3.835c-.057-.017-.919-.262-2.256-.45-.162-.597-.327-.95-.361-1.018-.139-.269-.39-.46-.686-.521-.034-.008-.854-.176-1.977-.176s-1.929.169-1.962.177c-.293.062-.542.253-.679.52-.035.068-.2.419-.361 1.015-1.351.188-2.221.437-2.278.454-.53.154-.834.709-.68 1.238.127.438.527.722.96.722.008 0 .017-.003.025-.004-.016.553-.026 1.172-.026 1.722 0 2.996.515 4.866.537 4.944.091.322.337.579.657.682.067.021 1.674.53 3.806.53s3.739-.509 3.807-.53c.319-.103.565-.359.656-.682.021-.078.537-1.948.537-4.944 0-.555-.01-1.181-.026-1.737.443.011.857-.258.986-.703.153-.529-.15-1.084-.68-1.238z"/></svg>